<?xml version="1.0" encoding="UTF-8"?>
<!DOCTYPE svg PUBLIC "-//W3C//DTD SVG 1.1//EN" "http://www.w3.org/Graphics/SVG/1.1/DTD/svg11.dtd">
<svg xmlns="http://www.w3.org/2000/svg" version="1.1" width="512px" height="512px" style="shape-rendering:geometricPrecision; text-rendering:geometricPrecision; image-rendering:optimizeQuality; fill-rule:evenodd; clip-rule:evenodd" xmlns:xlink="http://www.w3.org/1999/xlink">
<g><path style="opacity:1" fill="#7ca1b1" d="M 421.5,110.5 C 418.188,110.057 414.855,109.724 411.5,109.5C 404.44,110.177 397.44,111.177 390.5,112.5C 394.987,64.3588 374.32,33.0255 328.5,18.5C 369.161,13.246 398.661,28.9127 417,65.5C 422.391,80.1129 423.891,95.1129 421.5,110.5 Z"/></g>
<g><path style="opacity:0.998" fill="#8ebac5" d="M 328.5,18.5 C 374.32,33.0255 394.987,64.3588 390.5,112.5C 397.44,111.177 404.44,110.177 411.5,109.5C 414.855,109.724 418.188,110.057 421.5,110.5C 423.045,112.805 425.045,113.138 427.5,111.5C 462.665,125.829 475.498,151.496 466,188.5C 462.217,197.439 457.05,205.439 450.5,212.5C 440.718,209.895 430.718,208.895 420.5,209.5C 420.322,203.559 419.322,197.893 417.5,192.5C 410.434,165.265 394.1,145.765 368.5,134C 360.776,130.902 352.776,129.069 344.5,128.5C 336.982,127.291 329.315,127.291 321.5,128.5C 311.883,101.223 294.883,79.8899 270.5,64.5C 281.847,39.1586 301.18,23.8252 328.5,18.5 Z"/></g>
<g><path style="opacity:1" fill="#d4f1f5" d="M 270.5,64.5 C 294.883,79.8899 311.883,101.223 321.5,128.5C 325.311,142.958 326.311,157.624 324.5,172.5C 316.286,169.474 309.119,164.808 303,158.5C 290.873,103.706 257.373,70.2063 202.5,58C 194.66,57.0246 186.993,55.8579 179.5,54.5C 211.196,45.2656 241.53,48.5989 270.5,64.5 Z"/></g>
<g><path style="opacity:0.999" fill="#e9f8f9" d="M 179.5,54.5 C 186.993,55.8579 194.66,57.0246 202.5,58C 257.373,70.2063 290.873,103.706 303,158.5C 309.119,164.808 316.286,169.474 324.5,172.5C 327.891,177.873 332.391,178.873 338,175.5C 338.667,174.167 339.333,172.833 340,171.5C 340.716,162.473 340.549,153.473 339.5,144.5C 355.199,153.7 367.366,166.367 376,182.5C 379.855,189.574 383.022,196.908 385.5,204.5C 380.623,207.203 376.123,210.536 372,214.5C 370.673,222.17 373.839,225.67 381.5,225C 389.528,219.486 398.195,215.319 407.5,212.5C 430.547,212.606 448.38,222.273 461,241.5C 478.643,273.885 479.976,306.885 465,340.5C 455.046,357.293 441.212,369.627 423.5,377.5C 409.167,377.5 394.833,377.5 380.5,377.5C 381.068,367.771 379.401,358.437 375.5,349.5C 374.667,349.167 373.833,348.833 373,348.5C 363.365,351.802 355.032,357.135 348,364.5C 345.947,368.586 345.113,372.92 345.5,377.5C 299.833,377.5 254.167,377.5 208.5,377.5C 208.527,367.801 206.694,358.468 203,349.5C 202.107,348.919 201.107,348.585 200,348.5C 191.396,351.635 183.729,356.302 177,362.5C 174.322,367.237 172.822,372.237 172.5,377.5C 134.832,377.667 97.1652,377.5 59.5,377C 26.9597,369.626 6.95967,349.792 -0.5,317.5C -0.5,309.5 -0.5,301.5 -0.5,293.5C 6.16541,263.166 24.4987,243.833 54.5,235.5C 79.2051,232.012 100.038,239.345 117,257.5C 121.291,263.915 125.458,270.415 129.5,277C 136.062,278.898 139.729,276.565 140.5,270C 130.031,243.399 110.698,227.065 82.5,221C 72.8335,219.401 63.1669,219.234 53.5,220.5C 53.913,197.32 64.2463,180.32 84.5,169.5C 84.7255,179.794 86.5588,189.794 90,199.5C 94,203.5 98,203.5 102,199.5C 102.958,197.801 103.458,195.967 103.5,194C 101.129,184.151 99.4622,174.318 98.5,164.5C 100.421,115.796 123.087,80.6296 166.5,59C 170.744,57.1965 175.078,55.6965 179.5,54.5 Z"/></g>
<g><path style="opacity:1" fill="#7ca1b1" d="M 471.5,220.5 C 464.702,217.454 457.702,214.787 450.5,212.5C 457.05,205.439 462.217,197.439 466,188.5C 475.498,151.496 462.665,125.829 427.5,111.5C 459.144,105.572 482.311,116.906 497,145.5C 506.707,176.882 498.207,201.882 471.5,220.5 Z"/></g>
<g><path style="opacity:1" fill="#cbe5e8" d="M 344.5,128.5 C 341.813,128.336 339.146,128.503 336.5,129C 338.027,134.037 339.027,139.203 339.5,144.5C 340.549,153.473 340.716,162.473 340,171.5C 339.333,172.833 338.667,174.167 338,175.5C 332.391,178.873 327.891,177.873 324.5,172.5C 326.311,157.624 325.311,142.958 321.5,128.5C 329.315,127.291 336.982,127.291 344.5,128.5 Z"/></g>
<g><path style="opacity:1" fill="#d3f1f5" d="M 344.5,128.5 C 352.776,129.069 360.776,130.902 368.5,134C 394.1,145.765 410.434,165.265 417.5,192.5C 417.586,193.496 417.252,194.329 416.5,195C 405.726,196.776 395.393,199.943 385.5,204.5C 383.022,196.908 379.855,189.574 376,182.5C 367.366,166.367 355.199,153.7 339.5,144.5C 339.027,139.203 338.027,134.037 336.5,129C 339.146,128.503 341.813,128.336 344.5,128.5 Z"/></g>
<g><path style="opacity:1" fill="#cce5e8" d="M 98.5,164.5 C 99.4622,174.318 101.129,184.151 103.5,194C 103.458,195.967 102.958,197.801 102,199.5C 98,203.5 94,203.5 90,199.5C 86.5588,189.794 84.7255,179.794 84.5,169.5C 88.7994,167.065 93.466,165.398 98.5,164.5 Z"/></g>
<g><path style="opacity:1" fill="#cbe5e8" d="M 417.5,192.5 C 419.322,197.893 420.322,203.559 420.5,209.5C 416.017,210.228 411.684,211.228 407.5,212.5C 398.195,215.319 389.528,219.486 381.5,225C 373.839,225.67 370.673,222.17 372,214.5C 376.123,210.536 380.623,207.203 385.5,204.5C 395.393,199.943 405.726,196.776 416.5,195C 417.252,194.329 417.586,193.496 417.5,192.5 Z"/></g>
<g><path style="opacity:1" fill="#cbe5e8" d="M 327.5,241.5 C 325.142,245.077 321.809,246.244 317.5,245C 293.232,219.732 265.232,214.732 233.5,230C 223.953,235.38 216.619,242.88 211.5,252.5C 207.493,259.029 204.16,265.863 201.5,273C 193.216,275.39 189.383,272.223 190,263.5C 200.397,232.043 221.897,213.21 254.5,207C 284.183,203.554 308.683,213.054 328,235.5C 328.678,237.598 328.511,239.598 327.5,241.5 Z"/></g>
<g><path style="opacity:1" fill="#d4f2f6" d="M 420.5,209.5 C 430.718,208.895 440.718,209.895 450.5,212.5C 457.702,214.787 464.702,217.454 471.5,220.5C 493.228,234.896 506.561,254.896 511.5,280.5C 511.5,289.167 511.5,297.833 511.5,306.5C 500.639,352.944 471.306,376.611 423.5,377.5C 441.212,369.627 455.046,357.293 465,340.5C 479.976,306.885 478.643,273.885 461,241.5C 448.38,222.273 430.547,212.606 407.5,212.5C 411.684,211.228 416.017,210.228 420.5,209.5 Z"/></g>
<g><path style="opacity:1" fill="#cbe5e8" d="M 54.5,235.5 C 53.746,230.537 53.4126,225.537 53.5,220.5C 63.1669,219.234 72.8335,219.401 82.5,221C 110.698,227.065 130.031,243.399 140.5,270C 139.729,276.565 136.062,278.898 129.5,277C 125.458,270.415 121.291,263.915 117,257.5C 100.038,239.345 79.2051,232.012 54.5,235.5 Z"/></g>
<g><path style="opacity:1" fill="#d4f1f5" d="M 327.5,241.5 C 327.351,242.552 327.517,243.552 328,244.5C 337.026,254.886 342.526,266.886 344.5,280.5C 343.448,280.649 342.448,280.483 341.5,280C 314.313,252.245 281.313,239.911 242.5,243C 231.673,244.665 221.339,247.832 211.5,252.5C 216.619,242.88 223.953,235.38 233.5,230C 265.232,214.732 293.232,219.732 317.5,245C 321.809,246.244 325.142,245.077 327.5,241.5 Z"/></g>
<g><path style="opacity:1" fill="#65dbfa" d="M 282.5,286.5 C 283.822,286.33 284.989,286.663 286,287.5C 290.987,297.752 292.32,308.419 290,319.5C 284.502,329.451 276.335,332.284 265.5,328C 256.808,322.254 254.308,314.421 258,304.5C 260.5,300.667 263.667,297.5 267.5,295C 272.563,292.139 277.563,289.306 282.5,286.5 Z"/></g>
<g><path style="opacity:0.989" fill="#64dbfb" d="M 208.5,377.5 C 202.91,391.755 193.243,395.255 179.5,388C 175.779,385.383 173.446,381.883 172.5,377.5C 172.822,372.237 174.322,367.237 177,362.5C 183.729,356.302 191.396,351.635 200,348.5C 201.107,348.585 202.107,348.919 203,349.5C 206.694,358.468 208.527,367.801 208.5,377.5 Z"/></g>
<g><path style="opacity:0.986" fill="#63dbfb" d="M 380.5,377.5 C 377.486,388.847 370.153,393.347 358.5,391C 351.238,389.24 346.905,384.74 345.5,377.5C 345.113,372.92 345.947,368.586 348,364.5C 355.032,357.135 363.365,351.802 373,348.5C 373.833,348.833 374.667,349.167 375.5,349.5C 379.401,358.437 381.068,367.771 380.5,377.5 Z"/></g>
<g><path style="opacity:0.949" fill="#62dbfb" d="M 48.5,412.5 C 57.7784,411.376 61.2784,415.376 59,424.5C 55.3333,431.167 51.6667,437.833 48,444.5C 43.8716,448.446 39.7049,448.446 35.5,444.5C 33.7751,442.043 33.2751,439.377 34,436.5C 37.5882,430.325 40.9215,423.991 44,417.5C 45.0591,415.341 46.5591,413.674 48.5,412.5 Z"/></g>
<g><path style="opacity:0.954" fill="#61dbfb" d="M 99.5,412.5 C 107.599,411.105 111.433,414.439 111,422.5C 107.588,429.658 103.922,436.658 100,443.5C 92.9974,449.597 87.8308,448.264 84.5,439.5C 88.2614,429.628 93.2614,420.628 99.5,412.5 Z"/></g>
<g><path style="opacity:0.951" fill="#62dbfb" d="M 229.5,412.5 C 238.33,411.162 241.83,414.829 240,423.5C 236.588,430.658 232.922,437.658 229,444.5C 223.559,448.926 218.892,448.259 215,442.5C 214.333,440.5 214.333,438.5 215,436.5C 218.667,429.5 222.333,422.5 226,415.5C 227.145,414.364 228.312,413.364 229.5,412.5 Z"/></g>
<g><path style="opacity:0.958" fill="#62dbfb" d="M 280.5,412.5 C 286.994,411.238 290.994,413.738 292.5,420C 288.819,427.864 284.985,435.697 281,443.5C 276.828,448.368 272.328,448.702 267.5,444.5C 265.883,442.368 265.383,440.035 266,437.5C 269.852,428.445 274.685,420.112 280.5,412.5 Z"/></g>
<g><path style="opacity:0.953" fill="#61dbfb" d="M 409.5,412.5 C 418.158,411.327 421.992,414.994 421,423.5C 417.367,430.627 413.534,437.627 409.5,444.5C 404.179,448.934 399.679,448.267 396,442.5C 395.333,440.167 395.333,437.833 396,435.5C 400.007,427.477 404.507,419.81 409.5,412.5 Z"/></g>
<g><path style="opacity:0.953" fill="#62dbfb" d="M 461.5,412.5 C 470.778,411.376 474.278,415.376 472,424.5C 468.333,431.167 464.667,437.833 461,444.5C 456.702,448.379 452.369,448.379 448,444.5C 446.578,441.97 446.245,439.303 447,436.5C 450.922,429.658 454.588,422.658 458,415.5C 459.145,414.364 460.312,413.364 461.5,412.5 Z"/></g>
<g><path style="opacity:0.973" fill="#62dbfb" d="M 155.5,431.5 C 157.199,431.34 158.866,431.506 160.5,432C 165.839,443.591 166.672,455.425 163,467.5C 152.444,478.252 142.111,477.919 132,466.5C 128.489,457.721 129.989,449.887 136.5,443C 142.597,438.625 148.93,434.792 155.5,431.5 Z"/></g>
<g><path style="opacity:0.972" fill="#62dbfb" d="M 335.5,431.5 C 338.079,431.083 340.246,431.75 342,433.5C 346.847,444.672 347.513,456.006 344,467.5C 335.354,477.131 325.854,477.964 315.5,470C 308.302,459.84 309.302,450.507 318.5,442C 324.074,438.24 329.741,434.74 335.5,431.5 Z"/></g>
<g><path style="opacity:0.954" fill="#62dbfb" d="M 26.5,458.5 C 32.947,459.441 35.7803,463.107 35,469.5C 31.3333,476.5 27.6667,483.5 24,490.5C 19.3333,495.833 14.6667,495.833 10,490.5C 9.33333,487.5 9.33333,484.5 10,481.5C 13.6667,474.833 17.3333,468.167 21,461.5C 22.8761,460.391 24.7095,459.391 26.5,458.5 Z"/></g>
<g><path style="opacity:0.954" fill="#61dbfb" d="M 78.5,458.5 C 85.2871,459.73 87.7871,463.73 86,470.5C 82.3333,477.167 78.6667,483.833 75,490.5C 69.9391,495.635 65.2725,495.302 61,489.5C 60.3333,487.167 60.3333,484.833 61,482.5C 64.9136,475.004 69.0803,467.671 73.5,460.5C 75.3361,459.972 77.0028,459.306 78.5,458.5 Z"/></g>
<g><path style="opacity:0.955" fill="#62dbfb" d="M 207.5,458.5 C 212.591,459.091 215.591,461.924 216.5,467C 212.74,475.354 208.573,483.521 204,491.5C 196.896,496.018 192.062,494.185 189.5,486C 193.181,478.136 197.015,470.303 201,462.5C 202.792,460.372 204.958,459.039 207.5,458.5 Z"/></g>
<g><path style="opacity:0.957" fill="#62dbfb" d="M 258.5,458.5 C 264.947,459.441 267.78,463.107 267,469.5C 263.588,476.658 259.922,483.658 256,490.5C 251.333,495.833 246.667,495.833 242,490.5C 241.333,487.833 241.333,485.167 242,482.5C 245.412,475.342 249.078,468.342 253,461.5C 254.876,460.391 256.709,459.391 258.5,458.5 Z"/></g>
<g><path style="opacity:0.964" fill="#61dbfb" d="M 388.5,458.5 C 396.063,459.736 398.563,464.069 396,471.5C 392.333,478.167 388.667,484.833 385,491.5C 376.067,496.3 371.4,493.633 371,483.5C 374.667,476.5 378.333,469.5 382,462.5C 383.792,460.372 385.958,459.039 388.5,458.5 Z"/></g>
<g><path style="opacity:0.952" fill="#61dbfb" d="M 439.5,458.5 C 445.467,459.292 448.3,462.625 448,468.5C 444.349,475.802 440.682,483.136 437,490.5C 433.763,494.249 429.93,495.082 425.5,493C 423.236,491.221 421.903,488.887 421.5,486C 425.26,477.646 429.427,469.479 434,461.5C 435.719,460.131 437.552,459.131 439.5,458.5 Z"/></g>
</svg>
